<svg width="120" height="568" viewBox="0 0 120 568" fill="none" xmlns="http://www.w3.org/2000/svg">
<path d="M116.671 -7C66.1712 -5.83333 -26.4288 12.1 7.17117 74.5C40.7712 136.9 94.1712 100.5 116.671 74.5C70.3379 63.5 -11.9286 68.6 29.6714 177C71.2714 285.4 105.005 218.833 116.671 172C75.1711 161 -4.829 156.6 7.17117 227C19.1713 297.4 57.5047 289 75.1714 276C48.6714 244.667 -0.928614 216.3 12.6714 353.5C26.2714 490.7 47.0047 410.667 55.6714 353.5C36.0047 352.333 3.27139 373.3 29.6714 466.5C56.0714 559.7 85.6714 570.667 97.1714 564.5" stroke="#E4B7A0" stroke-width="3"/>
</svg>
