<?xml version="1.0" encoding="UTF-8"?><svg id="Layer_1" xmlns="http://www.w3.org/2000/svg" xmlns:xlink="http://www.w3.org/1999/xlink" viewBox="0 0 2000 699"><defs><style>.cls-1{fill:url(#linear-gradient);}.cls-1,.cls-2,.cls-3,.cls-4,.cls-5,.cls-6,.cls-7{stroke-width:0px;}.cls-2{fill:url(#linear-gradient-4);}.cls-3{fill:url(#linear-gradient-2);}.cls-4{fill:url(#linear-gradient-3);}.cls-5{fill:url(#linear-gradient-7);}.cls-6{fill:url(#linear-gradient-5);}.cls-7{fill:url(#linear-gradient-6);}</style><linearGradient id="linear-gradient" x1="1820.49" y1="145.57" x2="139.9" y2="624.3" gradientUnits="userSpaceOnUse"><stop offset="0" stop-color="#d9c7bd"/><stop offset="1" stop-color="#edbea2"/></linearGradient><linearGradient id="linear-gradient-2" x1="1860.51" y1="286.08" x2="179.93" y2="764.82" xlink:href="#linear-gradient"/><linearGradient id="linear-gradient-3" x1="1771.65" y1="-25.86" x2="91.06" y2="452.87" xlink:href="#linear-gradient"/><linearGradient id="linear-gradient-4" x1="1788.82" y1="34.39" x2="108.23" y2="513.12" xlink:href="#linear-gradient"/><linearGradient id="linear-gradient-5" x1="1886.21" y1="376.27" x2="205.62" y2="855.01" xlink:href="#linear-gradient"/><linearGradient id="linear-gradient-6" x1="1843.74" y1="227.18" x2="163.15" y2="705.92" xlink:href="#linear-gradient"/><linearGradient id="linear-gradient-7" x1="1788.31" y1="32.62" x2="107.72" y2="511.35" xlink:href="#linear-gradient"/></defs><path class="cls-1" d="m980.04,351.48c-5.02-18.66-18.66-29.43-40.2-29.43-33.74,0-66.04,36.61-66.04,102.64v127.05c0,23.69,7.18,30.86,23.69,30.86h1.44v3.59h-124.18v-3.59h.72c16.51,0,24.4-7.18,24.4-30.86v-251.94c0-23.69-7.9-30.87-24.4-30.87h-.72v-3.59h99.05v78.38c0,2.68,3.83,3.15,4.48.54,15.55-62.65,54.77-79.72,94.58-80.36l7.18,87.57Z"/><path class="cls-3" d="m1586.42,261.33v3.59h-.72c-16.5,0-20.1,7.18-29.43,30.87l-114.13,289.99-114.13-289.99c-2.13-5.42-3.97-9.97-5.72-13.77l-8.6-20.69h81.51l32.72,85.94,52.26,132.99,72.5-184.48c2.15-5.74,3.59-10.76,3.59-14.36,0-12.2-10.05-16.51-22.25-16.51h-.72v-3.59h53.12Z"/><path class="cls-4" d="m536.65,586.08l-.68-2.32h0c-.2-.83-.4-1.7-.68-2.55-4.02-12.25-8.11-24.47-12.1-36.73-5.28-16.2-10.63-32.38-15.7-48.65-3.97-12.72-7.55-25.56-11.31-38.34-7.18-24.47-14.37-48.94-21.53-73.42-5.71-19.53-11.38-39.07-17.09-58.59-5.11-17.46-10.27-34.92-15.4-52.37-6.02-20.48-12.04-40.97-18.05-61.45-4.92-16.77-9.84-33.55-14.74-50.32-4.46-15.26-7.19-25.36-11.66-40.62,0-.02-1.72-5.22-1.73-5.24-.51-1.68-2.15-2.81-3.91-2.76,0,0-.02,0-.03,0-13.17-.08-17.18.82-25.67,2.36-11.77,2.13-23.11,5.59-34.06,10.4-15.77,6.92-29.92,16.28-42.69,27.8-19.48,17.56-33.55,38.72-41.71,63.63-4.64,14.16-8.66,28.52-12.87,42.81-6.85,23.23-13.56,46.49-20.47,69.7-7.23,24.3-13.97,48.75-21.66,72.92-4.39,13.77-8.04,27.76-12.15,41.62-11.19,37.76-22.38,75.51-33.73,113.22-2.58,8.56-4.69,17.23-7,25.86l-1.04,3.05h72.32l1.42-4.56h0c1.77-5.67,3.5-11.25,5.27-16.82,10.14-31.94,19.66-64.08,30.19-95.9,4.74-14.33,8.92-28.85,13.2-43.33,3.1-10.47,6.22-20.93,8.97-31.5.62-2.38,1.45-4.68,2.22-7.09,1.07-.08,1.91-.2,2.76-.2,10.18,0,20.37-.06,30.55.02,11.97.1,23.69,1.95,35.14,5.45,15.69,4.78,29.87,12.45,42.78,22.48,19.73,15.32,34.26,34.49,42.55,58.17,1.99,5.67,3.62,11.47,5.35,17.23,5.53,18.38,11.05,36.76,16.53,55.15,3.64,12.22,7.21,24.46,10.83,36.68.36,1.21.82,2.39,1.26,3.67,0,0,.02,0,.03,0l.2.55h76.07Zm-94.8-172.73c-17.78-12.89-37.06-22.79-58.11-29.25-18.8-5.76-32.65-8.74-57.66-8.52-15.06.02-30.12,0-45.18,0-1.56,0-3.12-.07-5.27-.12.36-1.34.53-2.01.72-2.67,7.87-26.96,15.74-53.93,23.62-80.89,7.16-24.48,14.32-48.96,21.5-73.44,5.12-17.46,10.26-34.92,15.41-52.38,1.67-5.68,4.23-10.92,7.53-15.85,2.16-3.23,4.89-5.48,8.47-6.96,8.52-3.52,16.96-3.88,25.37.23,3.25,1.59,6.15,3.7,8.68,6.26,7.59,7.69,13.05,16.68,16.12,27.04,5.98,20.2,11.85,40.43,17.77,60.65,6.61,22.55,13.26,45.09,19.86,67.64,4.95,16.92,9.83,33.85,14.76,50.77,7.26,24.9,14.55,49.79,21.84,74.68,2.1,7.15,4.26,14.28,6.38,21.43.24.79.4,1.6.79,3.17-.96-.85-1.41-1.13-1.7-1.52-11.63-15.47-25.26-28.92-40.92-40.28Z"/><path class="cls-2" d="m732.4,506.62c-9.33,53.12-43.07,79.67-83.98,79.67s-68.91-16.51-68.91-79.67v-235.19h-52.39v-7.42h52.55v-115.75h73.96v115.75h75.19v7.42h-75.37v222.27c0,54.55,12.92,68.19,33.02,68.19s37.32-24.41,43.07-56.7l2.87,1.43Z"/><path class="cls-6" d="m1860.82,446.77h.18c-.98,8.34-2.57,16.54-4.78,24.63-8.21,29.66-23.35,55.06-45.4,76.2-22.06,21.14-48.59,33.8-79.6,37.96-29.29,2.69-56.19-2.91-80.7-16.82-24.51-13.91-43.93-33.42-58.27-58.55-12.99-23.41-20.31-48.35-21.97-74.82-1.65-26.47,2.54-52.08,12.59-76.84,10.05-24.26,24.91-44.91,44.58-61.95,19.67-17.03,42.62-27.69,68.84-31.99,30.15-3.92,58.24,1.19,84.28,15.35,26.04,14.15,46.29,34.53,60.75,61.12v.18c.24.25.43.49.55.74.61,1.1,1.19,2.18,1.75,3.22.55,1.04.95,1.81,1.19,2.3-46.08,24.14-92.1,48.23-138.05,72.24-18.38,9.68-36.83,19.36-55.33,29.04,7.23,14.46,15.69,28.13,25.37,40.99,15.07,20.96,33.52,38.3,55.33,52.02,9.19,5.76,19.27,9.96,30.24,12.59,10.97,2.64,21.72,1.87,32.26-2.3,4.41-3.43,8.7-7.17,12.87-11.21v.18-.18c13.24-17.89,17.46-43.32,12.68-76.29,16.3.25,29.84-5.7,40.63-17.83Zm-86.21-98.9c-2.21-3.06-4.47-6.07-6.8-9.01-5.03-6.25-10.42-12.19-16.18-17.83-10.05-10.05-21.14-18.75-33.27-26.1-8.34-4.9-17.34-8.61-27.02-11.12-9.68-2.51-19.3-2.54-28.86-.09-8.7,2.82-15.78,7.57-21.23,14.25-5.45,6.68-9.41,14.25-11.86,22.7-5.39,20.22-5.85,40.93-1.38,62.13,4.47,21.2,11.18,40.99,20.13,59.38,15.44-8.09,30.88-16.24,46.32-24.45,31.13-16.79,62.56-33.15,94.3-49.08-.86-1.71-1.9-3.55-3.13-5.51h-.18c-.12-.24-.25-.49-.37-.74-.98-1.59-1.96-3.06-2.94-4.41-2.7-3.31-5.21-6.68-7.54-10.11Z"/><path class="cls-7" d="m1166.06,261.42c34.12,1.99,64.4,13.77,90.83,35.36,25.81,22.21,42.81,49.48,51,81.8,8.19,32.32,6.76,64.49-4.28,96.5-2.85,7.94-6.26,15.63-10.24,23.08-16.5,30.52-40.14,53.91-70.91,70.17-29.53,14.89-60.67,20.41-93.43,16.56-13.4-1.74-26.36-5.21-38.9-10.42-9.06-3.84-17.68-8.44-25.87-13.77-8.19-5.46-15.82-11.66-22.89-18.61-23.33-23.45-38.03-51.43-44.11-83.94-5.71-34.25-1.64-66.94,12.19-98.08,13.84-31.14,35.39-56.02,64.68-74.63,28.29-17.24,58.94-25.25,91.94-24.01Zm61.23,24.57v-.19c-12.41-5.71-26.77-4.99-43.09,2.14-16.31,7.14-32.85,19.45-49.6,36.94-16.75,17.49-32.01,38.96-45.78,64.4-13.03,24.69-22.18,48.58-27.45,71.65-5.27,23.08-6.61,43.37-4,60.86,2.61,17.49,9.31,30.21,20.1,38.15,2.86,1.61,5.77,3.16,8.75,4.65,12.66,4.22,26.93,2.48,42.81-5.21,15.88-7.69,31.86-20.13,47.93-37.32,16.07-17.18,30.68-38,43.83-62.44,13.4-25.31,22.71-49.72,27.92-73.24,5.21-23.51,6.3-44.05,3.26-61.6-3.04-17.56-10.27-29.99-21.68-37.32h-.19c-.87-.49-1.8-.99-2.79-1.49Z"/><rect class="cls-5" x="1036.05" y="205.99" width="235.76" height="14.68"/></svg>