<?xml version="1.0" encoding="UTF-8"?><svg id="Layer_1" xmlns="http://www.w3.org/2000/svg" xmlns:xlink="http://www.w3.org/1999/xlink" viewBox="0 0 1000 1000"><defs><style>.cls-1{fill:url(#linear-gradient);}.cls-1,.cls-2{stroke-width:0px;}.cls-2{fill:#fff;}</style><linearGradient id="linear-gradient" x1="1094.21" y1="330.73" x2="-94.21" y2="669.27" gradientUnits="userSpaceOnUse"><stop offset="0" stop-color="#d9c7bd"/><stop offset="1" stop-color="#edbea2"/></linearGradient></defs><rect class="cls-1" width="1000" height="1000"/><path class="cls-2" d="m716,757.13l-.74-2.52h0c-.22-.91-.44-1.85-.74-2.77-4.37-13.3-8.81-26.59-13.15-39.9-5.74-17.6-11.55-35.18-17.06-52.85-4.31-13.82-8.21-27.77-12.28-41.66-7.8-26.59-15.61-53.17-23.39-79.76-6.21-21.21-12.36-42.44-18.57-63.65-5.55-18.97-11.15-37.93-16.73-56.9-6.54-22.25-13.08-44.51-19.61-66.76-5.35-18.22-10.69-36.44-16.02-54.67-4.85-16.58-7.81-27.55-12.67-44.13,0-.02-1.87-5.67-1.87-5.69-.56-1.83-2.34-3.06-4.24-3,0,0-.02,0-.03,0-14.31-.08-18.66.89-27.89,2.57-12.78,2.32-25.11,6.08-37,11.29-17.13,7.51-32.51,17.69-46.38,30.2-21.16,19.08-36.45,42.06-45.31,69.12-5.04,15.38-9.4,30.98-13.98,46.51-7.44,25.23-14.73,50.51-22.24,75.72-7.86,26.4-15.17,52.96-23.54,79.21-4.76,14.95-8.73,30.16-13.2,45.21-12.16,41.02-24.32,82.04-36.65,123-2.8,9.3-5.09,18.72-7.6,28.09l-1.13,3.32h78.57l1.55-4.96h0c1.92-6.16,3.81-12.23,5.73-18.28,11.02-34.7,21.36-69.62,32.8-104.19,5.15-15.57,9.69-31.34,14.34-47.07,3.36-11.37,6.75-22.74,9.75-34.22.67-2.58,1.57-5.09,2.41-7.7,1.16-.09,2.08-.21,3-.21,11.06,0,22.13-.07,33.19.02,13,.11,25.73,2.12,38.18,5.92,17.04,5.2,32.45,13.53,46.47,24.42,21.43,16.64,37.22,37.47,46.22,63.2,2.16,6.16,3.93,12.46,5.81,18.72,6.01,19.97,12,39.94,17.96,59.92,3.96,13.27,7.84,26.57,11.76,39.85.39,1.32.89,2.6,1.37,3.98.01,0,.02,0,.03,0l.22.59h82.65Zm-102.99-187.65c-19.31-14-40.26-24.76-63.13-31.77-20.43-6.26-35.47-9.49-62.64-9.26-16.36.02-32.72,0-49.08,0-1.69,0-3.39-.07-5.73-.13.39-1.45.58-2.18.79-2.91,8.55-29.29,17.1-58.59,25.66-87.87,7.78-26.6,15.56-53.19,23.36-79.78,5.56-18.97,11.14-37.94,16.74-56.91,1.82-6.17,4.6-11.86,8.18-17.22,2.35-3.51,5.31-5.96,9.2-7.56,9.25-3.83,18.43-4.22,27.57.25,3.53,1.72,6.68,4.02,9.43,6.81,8.25,8.35,14.18,18.12,17.51,29.38,6.49,21.94,12.87,43.92,19.31,65.88,7.19,24.5,14.41,48.98,21.58,73.48,5.38,18.38,10.68,36.78,16.04,55.16,7.89,27.05,15.8,54.09,23.72,81.14,2.28,7.77,4.63,15.52,6.94,23.28.26.86.44,1.74.86,3.45-1.04-.92-1.53-1.22-1.85-1.65-12.63-16.81-27.44-31.42-44.45-43.76Z"/></svg>